<svg xmlns="http://www.w3.org/2000/svg" viewBox="0 0 1600 1000" width="1600" height="1000" preserveAspectRatio="xMidYMid slice">
  <defs>
    <radialGradient id="g" cx="50%" cy="60%" r="70%">
      <stop offset="0%" stop-color="#1a1a1a"/>
      <stop offset="100%" stop-color="#0A0A0A"/>
    </radialGradient>
    <linearGradient id="gold" x1="0%" y1="0%" x2="100%" y2="100%">
      <stop offset="0%" stop-color="#F5C518" stop-opacity="0.12"/>
      <stop offset="100%" stop-color="#F5C518" stop-opacity="0.02"/>
    </linearGradient>
  </defs>
  <rect width="1600" height="1000" fill="url(#g)"/>
  <rect width="1600" height="1000" fill="url(#gold)"/>
  <g stroke="#F5C518" stroke-opacity="0.4" fill="none" stroke-width="3" stroke-linecap="round" stroke-linejoin="round">
    <path d="M 320 620 L 360 540 L 520 500 L 760 480 L 1000 490 L 1180 520 L 1260 580 L 1280 620 L 1280 680 L 1240 680 L 1220 660 L 1180 660 L 1160 680 L 540 680 L 520 660 L 480 660 L 460 680 L 320 680 Z"/>
    <circle cx="540" cy="680" r="42"/>
    <circle cx="1180" cy="680" r="42"/>
    <path d="M 420 580 L 540 520 L 820 510 L 1040 520 L 1160 580"/>
    <path d="M 1220 540 L 1260 560"/>
  </g>
  <g font-family="ui-sans-serif, system-ui, -apple-system, sans-serif" fill="#F5C518" fill-opacity="0.5">
    <text x="800" y="870" text-anchor="middle" font-size="22" letter-spacing="8">D.PRESTIGE · PLACEHOLDER</text>
  </g>
</svg>
